<?xml version="1.0" standalone="no"?>
<!DOCTYPE svg PUBLIC "-//W3C//DTD SVG 20010904//EN"
 "http://www.w3.org/TR/2001/REC-SVG-20010904/DTD/svg10.dtd">
<svg version="1.0" xmlns="http://www.w3.org/2000/svg"
 width="512.000000pt" height="512.000000pt" viewBox="0 0 512.000000 512.000000"
 preserveAspectRatio="xMidYMid meet">
<metadata>
Created by potrace 1.14, written by Peter Selinger 2001-2017
</metadata>
<g transform="translate(0.000000,512.000000) scale(0.100000,-0.100000)"
fill="#000000" stroke="none">
<path d="M0 2560 l0 -2560 2560 0 2560 0 0 2560 0 2560 -2560 0 -2560 0 0
-2560z m1618 38 l-3 -303 -31 -3 c-27 -3 -33 1 -38 23 l-6 25 -22 -20 c-27
-24 -74 -34 -139 -28 -96 10 -126 75 -117 253 7 119 23 160 73 181 63 26 152
16 188 -21 16 -15 17 -10 17 83 0 54 3 102 7 105 3 4 21 7 40 7 l33 0 -2 -302z
m207 267 c0 -27 -3 -30 -37 -33 -38 -3 -38 -3 -38 33 0 36 0 36 38 33 34 -3
37 -6 37 -33z m920 0 c0 -27 -3 -30 -37 -33 -38 -3 -38 -3 -38 33 0 36 0 36
38 33 34 -3 37 -6 37 -33z m-2106 -267 c46 -156 84 -287 85 -293 1 -5 -16 -11
-36 -13 l-37 -3 -23 78 -24 78 -109 0 -109 0 -24 -77 c-23 -78 -23 -78 -58
-78 -19 0 -34 5 -34 12 0 12 151 503 170 552 9 23 15 26 62 26 l53 0 84 -282z
m1841 197 l0 -65 40 0 c36 0 40 -2 40 -25 0 -22 -4 -25 -40 -25 l-40 0 0 -152
c0 -84 4 -158 8 -165 4 -6 21 -13 37 -15 24 -2 31 -8 33 -30 3 -28 2 -28 -51
-28 -39 0 -62 6 -78 19 -23 18 -24 25 -27 194 l-4 176 -27 3 c-37 4 -37 42 2
46 26 3 27 5 27 62 0 62 4 66 58 69 21 1 22 -3 22 -64z m-264 -70 c23 -10 39
-26 49 -49 23 -55 20 -73 -15 -78 -31 -5 -33 -2 -42 57 -4 23 -47 33 -121 27
-66 -6 -71 -19 -72 -180 0 -162 3 -167 103 -159 68 5 92 18 92 51 0 33 13 45
43 39 30 -6 33 -18 16 -75 -15 -57 -50 -71 -164 -66 -83 3 -96 6 -119 27 -36
34 -46 78 -46 206 0 129 15 170 70 197 44 22 156 24 206 3z m961 -11 c41 -31
55 -95 50 -230 -5 -121 -13 -146 -60 -174 -42 -26 -192 -28 -242 -4 -50 23
-60 59 -60 214 0 115 3 140 18 164 29 44 70 57 174 54 75 -3 97 -7 120 -24z
m449 7 c44 -27 54 -78 54 -270 l0 -161 -40 0 -40 0 -2 187 -3 188 -25 11 c-28
14 -126 2 -144 -16 -7 -7 -12 -79 -14 -190 l-3 -180 -35 0 -34 0 0 220 0 220
31 0 c22 0 32 -5 36 -20 5 -20 23 -28 23 -11 0 5 15 16 33 25 45 22 124 21
163 -3z m441 -1 c43 -27 48 -53 48 -244 l0 -181 -27 -3 c-22 -3 -29 2 -34 22
-8 32 -11 32 -34 4 -14 -18 -31 -23 -84 -26 -112 -7 -156 29 -156 127 0 78 56
110 193 111 l67 0 0 63 c0 36 -5 68 -12 75 -7 7 -41 12 -81 12 -67 0 -69 -1
-80 -30 -9 -23 -17 -30 -39 -30 -31 0 -34 10 -17 60 17 46 56 61 154 57 45 -2
90 -9 102 -17z m363 -15 c0 -33 -2 -35 -34 -35 -19 0 -44 -9 -57 -19 -24 -19
-24 -23 -24 -188 l0 -168 -37 -3 -38 -3 0 220 0 221 34 0 c26 0 35 -5 39 -21
6 -22 6 -22 37 5 17 14 42 26 56 26 21 0 24 -5 24 -35z m-3540 -160 c5 -179 5
-179 30 -192 14 -7 41 -13 60 -13 19 0 46 6 60 13 25 13 25 13 30 192 l5 180
40 0 40 0 0 -215 0 -215 -33 -3 c-27 -3 -35 1 -39 17 -3 12 -6 21 -7 21 -1 0
-19 -9 -41 -20 -54 -28 -143 -27 -178 0 -39 31 -47 77 -47 258 l0 163 38 -3
37 -3 5 -180z m935 -35 l0 -215 -37 -3 -38 -3 0 221 0 221 38 -3 37 -3 0 -215z
m920 0 l0 -215 -37 -3 -38 -3 0 221 0 221 38 -3 37 -3 0 -215z m1850 119 c20
-56 46 -128 57 -160 11 -33 23 -59 26 -59 4 0 15 28 25 63 10 34 32 106 48
160 l30 97 34 0 c20 0 35 -5 35 -11 0 -7 -37 -125 -81 -263 -93 -284 -100
-296 -177 -296 -61 0 -75 10 -67 43 7 25 10 26 44 21 45 -7 71 13 71 55 0 16
-34 118 -75 227 -41 110 -75 205 -75 212 0 7 13 12 34 12 34 0 34 0 71 -101z"/>
<path d="M1356 2658 c-13 -18 -16 -51 -16 -154 0 -157 1 -159 100 -159 100 0
100 1 100 166 0 167 -1 169 -100 169 -60 0 -71 -3 -84 -22z"/>
<path d="M452 2662 c-23 -76 -42 -144 -42 -150 0 -8 27 -12 85 -12 70 0 85 3
85 15 0 22 -71 268 -79 278 -4 4 -26 -55 -49 -131z"/>
<path d="M2990 2683 c-48 -10 -50 -17 -50 -168 0 -171 -1 -170 107 -170 102 0
103 2 103 176 0 101 -3 139 -13 147 -15 13 -110 23 -147 15z"/>
<path d="M3923 2481 c-56 -10 -73 -26 -73 -70 0 -56 12 -66 75 -65 80 0 110
25 110 90 l0 49 -35 1 c-19 1 -54 -1 -77 -5z"/>
</g>
</svg>
